<?xml version="1.0" encoding="UTF-8" standalone="no"?>
<!-- Created with Inkscape (http://www.inkscape.org/) -->

<svg
   xmlns:dc="http://purl.org/dc/elements/1.1/"
   xmlns:cc="http://creativecommons.org/ns#"
   xmlns:rdf="http://www.w3.org/1999/02/22-rdf-syntax-ns#"
   xmlns:svg="http://www.w3.org/2000/svg"
   xmlns="http://www.w3.org/2000/svg"
   xmlns:sodipodi="http://sodipodi.sourceforge.net/DTD/sodipodi-0.dtd"
   xmlns:inkscape="http://www.inkscape.org/namespaces/inkscape"
   width="210mm"
   height="297mm"
   viewBox="0 0 744.09448819 1052.3622047"
   id="svg5055"
   version="1.1"
   inkscape:version="0.91 r13725"
   sodipodi:docname="dumpling_run_anim.svg">
  <defs
     id="defs5057">
    <inkscape:path-effect
       effect="spiro"
       id="path-effect5668"
       is_visible="true" />
    <inkscape:path-effect
       effect="spiro"
       id="path-effect5664"
       is_visible="true" />
    <inkscape:path-effect
       effect="spiro"
       id="path-effect5660"
       is_visible="true" />
    <inkscape:path-effect
       effect="spiro"
       id="path-effect5656"
       is_visible="true" />
    <inkscape:path-effect
       is_visible="true"
       id="path-effect5652"
       effect="spiro" />
    <inkscape:path-effect
       effect="spiro"
       id="path-effect5648"
       is_visible="true" />
    <inkscape:path-effect
       effect="spiro"
       id="path-effect5644"
       is_visible="true" />
    <inkscape:path-effect
       is_visible="true"
       id="path-effect5640"
       effect="spiro" />
    <inkscape:path-effect
       effect="spiro"
       id="path-effect5636"
       is_visible="true" />
    <inkscape:path-effect
       is_visible="true"
       id="path-effect5632"
       effect="spiro" />
    <inkscape:path-effect
       effect="spiro"
       id="path-effect5628"
       is_visible="true" />
    <inkscape:path-effect
       is_visible="true"
       id="path-effect5624"
       effect="spiro" />
    <inkscape:path-effect
       effect="spiro"
       id="path-effect5620"
       is_visible="true" />
    <inkscape:path-effect
       effect="spiro"
       id="path-effect5616"
       is_visible="true" />
  </defs>
  <sodipodi:namedview
     id="base"
     pagecolor="#ffffff"
     bordercolor="#666666"
     borderopacity="1.0"
     inkscape:pageopacity="0.0"
     inkscape:pageshadow="2"
     inkscape:zoom="4.9820312"
     inkscape:cx="114.87382"
     inkscape:cy="993.66268"
     inkscape:document-units="px"
     inkscape:current-layer="layer1"
     showgrid="false"
     inkscape:window-width="1852"
     inkscape:window-height="1053"
     inkscape:window-x="61"
     inkscape:window-y="-7"
     inkscape:window-maximized="1" />
  <metadata
     id="metadata5060">
    <rdf:RDF>
      <cc:Work
         rdf:about="">
        <dc:format>image/svg+xml</dc:format>
        <dc:type
           rdf:resource="http://purl.org/dc/dcmitype/StillImage" />
        <dc:title></dc:title>
      </cc:Work>
    </rdf:RDF>
  </metadata>
  <g
     inkscape:label="Layer 1"
     inkscape:groupmode="layer"
     id="layer1">
    <path
       style="fill:#fae7bc;fill-opacity:1;fill-rule:evenodd;stroke:none;stroke-width:1px;stroke-linecap:butt;stroke-linejoin:miter;stroke-opacity:1"
       d="m 88.556639,56.131478 20.115151,14.791176 c -0.59073,1.896454 -2.11931,3.47542 -3.99561,4.127333 -1.10816,0.385026 -2.30935,0.457171 -3.47488,0.32367 -1.16552,-0.1335 -2.300075,-0.467219 -3.399826,-0.875654 -2.109243,-0.783348 -4.137597,-1.864558 -5.770738,-3.412263 -1.637135,-1.55149 -2.840155,-3.55259 -3.462444,-5.720558 -0.475435,-1.656351 -0.615473,-3.396329 -0.551983,-5.118394 0.05105,-1.384629 0.232214,-2.764433 0.54033,-4.11531 z"
       id="path5646"
       inkscape:path-effect="#path-effect5648"
       inkscape:original-d="m 88.556639,56.131478 20.115151,14.791176 c 0,0 -2.05022,3.48105 -3.99561,4.127333 -1.97352,0.655629 -4.683292,0.142891 -6.874706,-0.551984 -2.130174,-0.675456 -4.182466,-1.840234 -5.770738,-3.412263 -1.584174,-1.567973 -2.748922,-3.608916 -3.462444,-5.720558 -0.54933,-1.625723 -0.571822,-3.402485 -0.551983,-5.118394 0.01599,-1.383451 0.54033,-4.11531 0.54033,-4.11531 z"
       inkscape:connector-curvature="0"
       sodipodi:nodetypes="ccsssssc"
       inkscape:export-filename="C:\Users\MaxDamaj\path5666.png"
       inkscape:export-xdpi="368"
       inkscape:export-ydpi="368" />
    <path
       style="fill:#a83610;fill-opacity:1;fill-rule:evenodd;stroke:none;stroke-width:1px;stroke-linecap:butt;stroke-linejoin:miter;stroke-opacity:1"
       d="m 88.577946,55.998678 c -0.896104,2.351954 -1.278769,4.898014 -1.113621,7.409471 0.115583,1.757709 0.499548,3.504025 1.204328,5.118394 0.829527,1.900115 2.112531,3.613392 3.763525,4.867493 1.819283,1.381934 4.02968,2.174519 6.272542,2.609377 1.96067,0.380145 4.03087,0.493724 5.92128,-0.150541 1.35437,-0.461578 2.59791,-1.334001 3.337,-2.559197 0.43775,-0.725667 0.69039,-1.561994 0.72761,-2.408656 -0.47273,0.78676 -1.10908,1.474704 -1.85668,2.007213 -1.01836,0.725372 -2.22834,1.154335 -3.46244,1.354869 -1.9505,0.316943 -3.982539,0.0724 -5.820917,-0.652344 -1.695461,-0.668403 -3.220888,-1.734909 -4.507621,-3.025517 -1.350395,-1.354462 -2.447554,-2.961073 -3.214063,-4.713386 -0.696598,-1.592491 -1.11931,-3.299039 -1.310777,-5.026643 -0.177827,-1.604529 -0.157682,-3.230901 0.05983,-4.830533 z"
       id="path5614"
       inkscape:path-effect="#path-effect5616"
       inkscape:original-d="m 88.577946,55.998678 c 0,0 -1.280201,5.03016 -1.113621,7.409471 0.122412,1.748444 0.45043,3.536093 1.204328,5.118394 0.882163,1.851507 2.13507,3.620727 3.763525,4.867493 1.798075,1.376629 4.046386,2.194152 6.272542,2.609377 1.94092,0.362024 4.06503,0.522198 5.92128,-0.150541 1.54482,-0.559871 2.54512,-1.119452 3.337,-2.559197 0.30801,-0.560013 0.72761,-2.408656 0.72761,-2.408656 0,0 -1.07654,1.535966 -1.85668,2.007213 -0.99328,0.599999 -2.30958,1.222535 -3.46244,1.354869 -1.96201,0.225214 -3.947957,-0.02607 -5.820917,-0.652344 -1.68556,-0.563615 -3.258547,-1.761165 -4.507621,-3.025517 -1.437925,-1.455513 -2.648238,-3.22027 -3.214063,-4.713386 -0.837231,-2.209304 -1.062057,-3.609079 -1.310777,-5.026643 -0.24872,-1.417565 0.05983,-4.830533 0.05983,-4.830533 z"
       inkscape:connector-curvature="0"
       sodipodi:nodetypes="csssssscssssszc"
       inkscape:export-filename="C:\Users\MaxDamaj\path5666.png"
       inkscape:export-xdpi="368"
       inkscape:export-ydpi="368" />
    <path
       style="fill:#a0a571;fill-opacity:1;fill-rule:evenodd;stroke:none;stroke-width:1px;stroke-linecap:butt;stroke-linejoin:miter;stroke-opacity:1"
       d="m 93.743184,62.59934 c -0.30788,0.344584 -0.508578,0.78361 -0.567726,1.2419 -0.08212,0.636248 0.116116,1.303629 0.532242,1.791884 0.307567,-0.489435 0.464244,-1.072271 0.443536,-1.649952 -0.01741,-0.485685 -0.15916,-0.966404 -0.408052,-1.383832 z"
       id="path5618"
       inkscape:path-effect="#path-effect5620"
       inkscape:original-d="m 93.743184,62.59934 c 0,0 -0.57028,0.830059 -0.567726,1.2419 0.0039,0.623074 0.532242,1.791884 0.532242,1.791884 0,0 0.496115,-1.082875 0.443536,-1.649952 -0.04542,-0.489884 -0.408052,-1.383832 -0.408052,-1.383832 z"
       inkscape:connector-curvature="0"
       sodipodi:nodetypes="cscsc"
       inkscape:export-filename="C:\Users\MaxDamaj\path5666.png"
       inkscape:export-xdpi="368"
       inkscape:export-ydpi="368" />
    <path
       sodipodi:nodetypes="cscsc"
       inkscape:connector-curvature="0"
       inkscape:original-d="m 98.86626,66.468988 c 0,0 -0.997644,0.137542 -1.300341,0.416818 -0.457923,0.422543 -0.966006,1.600301 -0.966006,1.600301 0,0 1.134566,-0.362643 1.518311,-0.783453 0.33151,-0.363526 0.748034,-1.233669 0.748034,-1.233669 z"
       inkscape:path-effect="#path-effect5624"
       id="path5622"
       d="m 98.86626,66.468988 c -0.462068,0.0045 -0.921754,0.151866 -1.300341,0.416818 -0.525596,0.367836 -0.885382,0.963862 -0.966006,1.600301 0.568926,-0.10231 1.105261,-0.37906 1.518311,-0.783453 0.347271,-0.339992 0.607126,-0.768546 0.748036,-1.233666 z"
       style="fill:#a0a571;fill-opacity:1;fill-rule:evenodd;stroke:none;stroke-width:1px;stroke-linecap:butt;stroke-linejoin:miter;stroke-opacity:1"
       inkscape:export-filename="C:\Users\MaxDamaj\path5666.png"
       inkscape:export-xdpi="368"
       inkscape:export-ydpi="368" />
    <path
       style="fill:#a0a571;fill-opacity:1;fill-rule:evenodd;stroke:none;stroke-width:1px;stroke-linecap:butt;stroke-linejoin:miter;stroke-opacity:1"
       d="m 102.91241,69.953392 c -0.42658,-0.177631 -0.90717,-0.223009 -1.35946,-0.128364 -0.62793,0.131398 -1.19318,0.53782 -1.51769,1.091221 0.5633,0.129759 1.16526,0.08633 1.70409,-0.122958 0.45303,-0.175955 0.86053,-0.467721 1.17306,-0.839899 z"
       id="path5626"
       inkscape:path-effect="#path-effect5628"
       inkscape:original-d="m 102.91241,69.953392 c 0,0 -0.97131,-0.266034 -1.35946,-0.128364 -0.58724,0.208318 -1.51769,1.091221 -1.51769,1.091221 0,0 1.18574,0.11295 1.70409,-0.122958 0.44779,-0.203791 1.17306,-0.839902 1.17306,-0.839902 z"
       inkscape:connector-curvature="0"
       sodipodi:nodetypes="cscsc"
       inkscape:export-filename="C:\Users\MaxDamaj\path5666.png"
       inkscape:export-xdpi="368"
       inkscape:export-ydpi="368" />
    <path
       sodipodi:nodetypes="ccsssssc"
       inkscape:connector-curvature="0"
       inkscape:original-d="m 116.08221,69.756724 4.26647,-21.828357 c 0,0 2.61798,2.329233 4.0464,3.79955 1.44908,1.491577 2.51934,2.883784 2.84729,5.159212 0.31879,2.21184 1.21545,3.779788 0.49119,5.893868 -0.72238,2.108624 -0.74843,4.622507 -2.33917,6.183812 -1.22469,1.202027 -3.06553,0.866377 -4.61909,1.595201 -1.25256,0.587603 -4.69309,-0.803286 -4.69309,-0.803286 z"
       inkscape:path-effect="#path-effect5652"
       id="path5650"
       d="m 116.08221,69.756724 4.26647,-21.828357 c 1.5092,1.079753 2.87391,2.361207 4.0464,3.79955 1.24934,1.532614 2.28848,3.262511 2.84729,5.159212 0.5601,1.901087 0.62401,3.916444 0.49119,5.893868 -0.0758,1.128423 -0.21611,2.261103 -0.56805,3.335913 -0.35195,1.074809 -0.92696,2.095248 -1.77112,2.847899 -1.24108,1.10655 -2.95714,1.543719 -4.61909,1.595201 -1.59703,0.04947 -3.20343,-0.225485 -4.69309,-0.803286 z"
       style="fill:#fae7bc;fill-opacity:1;fill-rule:evenodd;stroke:none;stroke-width:1px;stroke-linecap:butt;stroke-linejoin:miter;stroke-opacity:1"
       inkscape:export-filename="C:\Users\MaxDamaj\path5666.png"
       inkscape:export-xdpi="368"
       inkscape:export-ydpi="368" />
    <path
       sodipodi:nodetypes="cscsc"
       inkscape:connector-curvature="0"
       inkscape:original-d="m 119.2031,63.668747 c 0,0 0.0201,1.006886 0.26209,1.34012 0.36621,0.50412 1.47653,1.146298 1.47653,1.146298 0,0 -0.22765,-1.169151 -0.60077,-1.599414 -0.32232,-0.371688 -1.13786,-0.886998 -1.13786,-0.886998 z"
       inkscape:path-effect="#path-effect5632"
       id="path5630"
       d="m 119.2031,63.668747 c -0.0495,0.459432 0.0432,0.93318 0.26209,1.34012 0.30393,0.564961 0.85386,0.991897 1.47653,1.146298 -0.0352,-0.576979 -0.24739,-1.141963 -0.60077,-1.599414 -0.29711,-0.384602 -0.69238,-0.69273 -1.13786,-0.886998 l 1e-5,-6e-6 z"
       style="fill:#a0a571;fill-opacity:1;fill-rule:evenodd;stroke:none;stroke-width:1px;stroke-linecap:butt;stroke-linejoin:miter;stroke-opacity:1"
       inkscape:export-filename="C:\Users\MaxDamaj\path5666.png"
       inkscape:export-xdpi="368"
       inkscape:export-ydpi="368" />
    <path
       style="fill:#a0a571;fill-opacity:1;fill-rule:evenodd;stroke:none;stroke-width:1px;stroke-linecap:butt;stroke-linejoin:miter;stroke-opacity:1"
       d="m 123.26393,61.379737 c -0.31814,-0.33513 -0.73921,-0.571193 -1.19109,-0.667767 -0.62736,-0.134075 -1.30876,0.0087 -1.82953,0.383334 0.46253,0.346706 1.03053,0.550701 1.60796,0.577491 0.48547,0.02252 0.97621,-0.07928 1.41266,-0.293058 z"
       id="path5634"
       inkscape:path-effect="#path-effect5636"
       inkscape:original-d="m 123.26393,61.379737 c 0,0 -0.78044,-0.636503 -1.19109,-0.667767 -0.6213,-0.04722 -1.82953,0.383334 -1.82953,0.383334 0,0 1.03848,0.583342 1.60796,0.577491 0.49195,-0.0051 1.41266,-0.293068 1.41266,-0.293068 z"
       inkscape:connector-curvature="0"
       sodipodi:nodetypes="cscsc"
       inkscape:export-filename="C:\Users\MaxDamaj\path5666.png"
       inkscape:export-xdpi="368"
       inkscape:export-ydpi="368" />
    <path
       sodipodi:nodetypes="cscsc"
       inkscape:connector-curvature="0"
       inkscape:original-d="m 123.12809,56.912962 c 0,0 -0.87365,-0.500964 -1.28391,-0.464962 -0.6207,0.05455 -1.74272,0.676049 -1.74272,0.676049 0,0 1.11958,0.406506 1.68051,0.308032 0.48456,-0.08512 1.34612,-0.519124 1.34612,-0.519124 z"
       inkscape:path-effect="#path-effect5640"
       id="path5638"
       d="m 123.12809,56.912962 c -0.36845,-0.278869 -0.82233,-0.443239 -1.28391,-0.464962 -0.64081,-0.03016 -1.28988,0.221634 -1.74272,0.676049 0.5128,0.266786 1.10643,0.375596 1.68051,0.308032 0.48267,-0.05681 0.95029,-0.237139 1.34612,-0.519119 z"
       style="fill:#a0a571;fill-opacity:1;fill-rule:evenodd;stroke:none;stroke-width:1px;stroke-linecap:butt;stroke-linejoin:miter;stroke-opacity:1"
       inkscape:export-filename="C:\Users\MaxDamaj\path5666.png"
       inkscape:export-xdpi="368"
       inkscape:export-ydpi="368" />
    <path
       style="fill:#a83610;fill-opacity:1;fill-rule:evenodd;stroke:none;stroke-width:1px;stroke-linecap:butt;stroke-linejoin:miter;stroke-opacity:1"
       d="m 120.32236,47.913526 c 1.25533,0.642903 2.43654,1.430377 3.51281,2.341869 1.2819,1.085639 2.42237,2.358608 3.22894,3.832149 0.79204,1.446999 1.24708,3.05786 1.52576,4.683737 0.35328,2.061155 0.43114,4.17913 0.10645,6.244982 -0.20933,1.331875 -0.59853,2.665273 -1.38383,3.761183 -0.66363,0.926113 -1.59223,1.649425 -2.62573,2.128971 -1.38454,0.642431 -2.95949,0.851929 -4.47085,0.638692 -1.5294,-0.215782 -2.99573,-0.861964 -4.18697,-1.845109 1.34032,0.45618 2.77712,0.626647 4.18697,0.49676 1.57499,-0.145101 3.14822,-0.686216 4.32891,-1.73866 0.88759,-0.791186 1.52335,-1.846461 1.88059,-2.980559 0.47691,-1.514015 0.46623,-3.138679 0.31935,-4.71922 -0.14148,-1.522431 -0.40811,-3.04417 -0.95804,-4.470841 -0.53624,-1.391162 -1.33147,-2.666571 -2.16445,-3.903113 -1.03517,-1.53669 -2.1365,-3.02881 -3.29991,-4.470841 z"
       id="path5642"
       inkscape:path-effect="#path-effect5644"
       inkscape:original-d="m 120.32236,47.913526 c 0,0 2.58672,1.426142 3.51281,2.341869 1.18776,1.174469 2.41708,2.372341 3.22894,3.832149 0.79807,1.435004 1.25447,3.064308 1.52576,4.683737 0.34398,2.05335 0.45407,4.192245 0.10645,6.244982 -0.22305,1.31714 -0.60467,2.676047 -1.38383,3.761183 -0.68197,0.949782 -1.55043,1.669736 -2.62573,2.128971 -1.34917,0.576197 -3.01874,0.847564 -4.47085,0.638692 C 118.70628,71.327964 116.02894,69.7 116.02894,69.7 c 0,0 2.80487,0.665315 4.18697,0.49676 1.52669,-0.186188 3.10753,-0.803962 4.32891,-1.73866 0.8757,-0.670149 1.51276,-1.941017 1.88059,-2.980559 0.56924,-1.608762 0.57632,-3.032178 0.31935,-4.71922 -0.20971,-1.376769 -0.47085,-3.166189 -0.95804,-4.470841 -0.555,-1.486243 -1.47717,-2.473222 -2.16445,-3.903113 -0.77945,-1.621641 -3.29991,-4.470841 -3.29991,-4.470841 z"
       inkscape:connector-curvature="0"
       sodipodi:nodetypes="cssssssscssssssc"
       inkscape:export-filename="C:\Users\MaxDamaj\path5666.png"
       inkscape:export-xdpi="368"
       inkscape:export-ydpi="368" />
    <path
       style="fill:#d7be75;fill-opacity:1;fill-rule:evenodd;stroke:#bfaa69;stroke-width:1px;stroke-linecap:butt;stroke-linejoin:miter;stroke-opacity:1"
       d="m 99.457426,38.368162 -0.501804,4.767131 c -1.206109,1.13395 -2.270723,2.418247 -3.161361,3.813706 -0.429499,0.672942 -0.819746,1.373059 -1.304689,2.007213 -0.420352,0.549688 -0.90883,1.045705 -1.312201,1.607972 -0.403372,0.562267 -0.724947,1.212956 -0.745192,1.904652 -0.01739,0.594038 0.188389,1.173316 0.451622,1.706131 0.600316,1.21511 1.522118,2.273865 2.659558,3.01082 1.769505,1.146474 3.960301,1.478524 5.770741,2.559198 0.82342,0.49151 1.54943,1.126997 2.29575,1.729172 0.74632,0.602174 1.52908,1.180792 2.4212,1.532549 1.42803,0.563065 3.09429,0.488176 4.46605,-0.200721 0.84465,-0.494141 1.61003,-1.123455 2.25811,-1.856672 1.01295,-1.146027 1.72785,-2.529583 2.25812,-3.964247 0.78089,-2.112714 1.17658,-4.445872 0.60216,-6.623804 -0.31848,-1.207525 -0.93621,-2.341649 -1.81581,-3.228129 -0.8796,-0.886481 -2.02341,-1.518067 -3.2524,-1.739724 -0.68587,-0.123702 -1.39878,-0.123335 -2.05739,-0.351263 -0.55652,-0.192597 -1.04787,-0.540546 -1.48345,-0.936889 -0.43557,-0.396342 -0.82167,-0.843154 -1.22629,-1.271046 -1.78455,-1.887182 -3.94756,-3.415021 -6.322724,-4.466049 z"
       id="path5654"
       inkscape:path-effect="#path-effect5656"
       inkscape:original-d="m 99.457426,38.368162 -0.501804,4.767131 c 0,0 -2.163942,2.302615 -3.161361,3.813706 -0.43141,0.653586 -0.963328,1.3024 -1.304689,2.007213 -0.582743,1.203195 -1.694161,2.349249 -2.057393,3.512624 -0.231957,0.74292 0.100391,1.011602 0.451622,1.706131 0.672544,1.329894 1.606842,2.183214 2.659558,3.01082 1.635224,1.285552 3.952951,1.54814 5.770741,2.559198 1.67723,0.932878 2.8539,2.80082 4.71695,3.261721 1.44658,0.35787 4.46605,-0.200721 4.46605,-0.200721 0,0 1.63018,-1.111494 2.25811,-1.856672 0.97995,-1.162928 1.80258,-2.513321 2.25812,-3.964247 0.66411,-2.115234 1.30813,-4.522168 0.60216,-6.623804 -0.72767,-2.166259 -3.0265,-3.941412 -5.06821,-4.967853 -0.75095,-0.377529 -1.28054,-0.0304 -2.05739,-0.351263 -1.07689,-0.444787 -1.80141,-1.478236 -2.70974,-2.207935 -2.07932,-1.670406 -6.322724,-4.466049 -6.322724,-4.466049 z"
       inkscape:connector-curvature="0"
       sodipodi:nodetypes="ccssssssscssssssc"
       inkscape:export-filename="C:\Users\MaxDamaj\path5666.png"
       inkscape:export-xdpi="368"
       inkscape:export-ydpi="368" />
    <path
       style="fill:none;fill-rule:evenodd;stroke:#bfaa69;stroke-width:1px;stroke-linecap:butt;stroke-linejoin:miter;stroke-opacity:1"
       d="m 98.65454,43.336014 c 1.036395,1.401131 1.85232,2.964995 2.40866,4.616592 0.69395,2.060146 0.9817,4.250615 0.90324,6.423083 -0.0658,1.822495 -0.38777,3.635555 -0.95342,5.369296"
       id="path5658"
       inkscape:path-effect="#path-effect5660"
       inkscape:original-d="m 98.65454,43.336014 c 0,0 1.72739,2.998573 2.40866,4.616592 0.9462,2.247247 0.64931,3.998015 0.90324,6.423083 0.218,2.081872 -0.95342,5.369296 -0.95342,5.369296"
       inkscape:connector-curvature="0"
       sodipodi:nodetypes="cssc"
       inkscape:export-filename="C:\Users\MaxDamaj\path5666.png"
       inkscape:export-xdpi="368"
       inkscape:export-ydpi="368" />
    <path
       style="fill:none;fill-rule:evenodd;stroke:#bfaa69;stroke-width:1px;stroke-linecap:butt;stroke-linejoin:miter;stroke-opacity:1"
       d="m 100.96284,47.450802 c 2.21436,0.264826 4.30449,1.448615 5.67037,3.211542 1.1987,1.547143 1.82014,3.452522 2.40866,5.319115 0.68412,2.169813 1.35321,4.344363 2.00721,6.523444"
       id="path5662"
       inkscape:path-effect="#path-effect5664"
       inkscape:original-d="m 100.96284,47.450802 c 0,0 4.32153,1.852117 5.67037,3.211542 1.55429,1.566478 1.58794,3.270682 2.40866,5.319115 0.84614,2.111887 2.00721,6.523444 2.00721,6.523444"
       inkscape:connector-curvature="0"
       sodipodi:nodetypes="cssc"
       inkscape:export-filename="C:\Users\MaxDamaj\path5666.png"
       inkscape:export-xdpi="368"
       inkscape:export-ydpi="368" />
    <path
       style="fill:none;fill-rule:evenodd;stroke:#bfaa69;stroke-width:1px;stroke-linecap:butt;stroke-linejoin:miter;stroke-opacity:1"
       d="m 107.13501,44.189081 c 1.53502,1.510977 2.71318,3.38217 3.41226,5.419476 0.69657,2.029992 0.91013,4.280295 0.25091,6.322722 -0.24218,0.750341 -0.59883,1.463624 -1.05379,2.107574"
       id="path5666"
       inkscape:path-effect="#path-effect5668"
       inkscape:original-d="m 107.13501,44.189081 c 0,0 2.8585,3.765217 3.41226,5.419476 0.71221,2.127593 1.02206,4.215773 0.25091,6.322722 -0.31325,0.855895 -1.05379,2.107574 -1.05379,2.107574"
       inkscape:connector-curvature="0"
       sodipodi:nodetypes="cssc"
       inkscape:export-filename="C:\Users\MaxDamaj\path5666.png"
       inkscape:export-xdpi="368"
       inkscape:export-ydpi="368" />
  </g>
</svg>
